<?xml version="1.0" encoding="utf-8"?>
<!-- Generator: Adobe Illustrator 24.1.2, SVG Export Plug-In . SVG Version: 6.00 Build 0)  -->
<svg version="1.1" id="Layer_1" xmlns="http://www.w3.org/2000/svg" xmlns:xlink="http://www.w3.org/1999/xlink" x="0px" y="0px"
	 viewBox="0 0 1024 500" style="enable-background:new 0 0 1024 500;" xml:space="preserve">
<style type="text/css">
	.st0{fill:#BD81BE;}
	.st1{fill:#DF99C8;}
	.st2{fill:#C764A6;}
	.st3{fill:#782873;}
	.st4{fill:#642D7C;}
	.st5{fill:#4A1362;}
	.st6{fill:#3E1846;}
	.st7{font-family:'Ebrima';}
	.st8{font-size:121.613px;}
</style>
<g>
	<g>
		<path class="st0" d="M504,51.8l-24.3,17.7c0,0-13.1-9.8-30.2,14.4c0,0-28.2-9.8-51.8,11.2c0,0,16.4-2,27.6,8.5
			c0,0-17.7-1.3-19,3.3c0,0,24.3-6.6,37.4,35.4c0,0,5.2,42.6,41.3,62.3C484.9,204.6,405.6,135.1,504,51.8z"/>
		<path class="st1" d="M609.2,93.1l-26.7-13.8c0,0,3-16.1-26.4-20.6c0,0-3.8-29.6-33.1-41.4c0,0,9.1,13.8,4.7,28.5
			c0,0-6.7-16.4-11.4-15.6c0,0,16.7,18.8-15,49.3c0,0-35.8,23.7-37.3,64.8C463.9,144.3,490.7,42.2,609.2,93.1z"/>
		<path class="st2" d="M632.9,194.5l-3.2-29.9c0,0,15.1-6.5,2.6-33.4c0,0,22.6-19.5,16.2-50.5c0,0-6.5,15.2-21.1,19.6
			c0,0,10-14.7,6.7-18.1c0,0-6.4,24.3-49.4,14.7c0,0-39.6-16.7-74.6,4.7C509.9,101.7,609.8,67.6,632.9,194.5z"/>
		<path class="st3" d="M554.3,271.2l23.5-18.7c0,0,13.5,9.3,29.6-15.6c0,0,28.6,8.7,51.3-13.2c0,0-16.3,2.6-27.9-7.4
			c0,0,17.8,0.6,18.9-4c0,0-24,7.5-38.8-33.9c0,0-7-42.4-43.8-60.6C567.2,117.8,649.3,184,554.3,271.2z"/>
		<path class="st4" d="M443.5,221.8l26.6,13.9c0,0-3,16.1,26.3,20.7c0,0,3.6,29.7,32.9,41.5c0,0-9-13.8-4.5-28.5
			c0,0,6.7,16.5,11.4,15.6c0,0-16.6-18.9,15.2-49.2c0,0,35.9-23.6,37.6-64.6C589,171.3,561.8,273.2,443.5,221.8z"/>
		<path class="st5" d="M414.2,122.3l4.6,29.7c0,0-14.8,7.1-1,33.4c0,0-21.7,20.6-13.9,51.2c0,0,5.8-15.5,20.2-20.6
			c0,0-9.3,15.1-5.8,18.4c0,0,5.3-24.6,48.6-17c0,0,40.3,14.9,74.3-8.1C541.3,209.3,443.1,247.9,414.2,122.3z"/>
	</g>
	<text transform="matrix(1 0 0 1 291.6235 458.4502)" class="st6 st7 st8">KTHEEB</text>
</g>
</svg>
